<?xml version="1.0" encoding="utf-8"?>
<!-- Generator: Adobe Illustrator 18.0.0, SVG Export Plug-In . SVG Version: 6.00 Build 0)  -->
<!DOCTYPE svg PUBLIC "-//W3C//DTD SVG 1.1//EN" "http://www.w3.org/Graphics/SVG/1.1/DTD/svg11.dtd">
<svg version="1.1" id="Capa_1" xmlns="http://www.w3.org/2000/svg" xmlns:xlink="http://www.w3.org/1999/xlink" x="0px" y="0px"
	 viewBox="0 0 328.2 309.5" enable-background="new 0 0 328.2 309.5" xml:space="preserve">
<g>
	<g>
		<path fill="#ADADAD" d="M307.8,217.5c0.1,2.5-1.9,4.5-4.4,4.6c-2.5,0.1-4.6-1.9-4.6-4.4c-0.1-2.4,1.9-4.5,4.4-4.5
			C305.8,213.1,307.8,215.1,307.8,217.5z M299.9,217.7c0,2,1.5,3.5,3.5,3.4c1.9,0,3.3-1.6,3.3-3.6c0-2-1.5-3.5-3.5-3.5
			C301.3,214.1,299.9,215.8,299.9,217.7z M302.7,219.9l-1,0l-0.1-4.4c0.4-0.1,1-0.2,1.7-0.2c0.8,0,1.2,0.1,1.5,0.3
			c0.2,0.2,0.4,0.5,0.5,1c0,0.5-0.4,0.9-0.9,1l0,0.1c0.4,0.2,0.7,0.5,0.8,1.1c0.2,0.7,0.2,0.9,0.3,1.1l-1.1,0
			c-0.1-0.2-0.2-0.6-0.4-1.1c-0.1-0.5-0.4-0.7-0.9-0.7l-0.5,0L302.7,219.9z M302.7,217.4l0.5,0c0.6,0,1-0.2,1-0.7
			c0-0.4-0.3-0.7-1-0.6c-0.3,0-0.5,0-0.6,0.1L302.7,217.4z"/>
	</g>
	<g>
		<g>
			<g>
				<path fill="#171924" d="M73.3,200.8l-12.7,27.6c-1.7,3.7-3.4,5.3-5.4,6.1v22.1c0,0.9-0.8,1.6-1.7,1.6h-11
					c-0.9,0-1.7-0.7-1.7-1.6v-22.1c-2-0.9-3.9-2.4-5.5-6.1l-12.7-27.6c-0.1-0.1-0.1-0.3-0.1-0.6c0-0.6,0.4-1.2,1.3-1.2H36
					c0.9,0,1.4,0.6,1.7,1.4l9.1,22.5c0.4,1,0.7,1.2,1.3,1.2c0.6,0,0.8-0.2,1.3-1.2l9.1-22.5c0.3-0.7,0.8-1.4,1.7-1.4H72
					c0.9,0,1.3,0.6,1.3,1.2C73.4,200.5,73.4,200.7,73.3,200.8z"/>
				<path fill="#171924" d="M115.8,238.2c0,12.7-7.4,20.7-21,20.7c-13.6,0-21-8-21-20.7v-5.6c0-12.7,7.5-20.7,21-20.7
					c13.6,0,21,8,21,20.7V238.2z M102.3,232.6c0-6.5-2.5-9.7-7.5-9.7c-4.9,0-7.5,3.3-7.5,9.7v5.6c0,6.5,2.6,9.8,7.5,9.8
					c4.9,0,7.5-3.3,7.5-9.8V232.6z"/>
				<path fill="#171924" d="M162.1,214.4L148,261.3c-2.7,8.7-6,13-18.4,13c-3.1,0-8.1-0.6-10.1-1.3c-0.9-0.3-1.8-0.6-1.8-1.4v-6.5
					c0-0.9,0.8-1.5,1.7-1.5h0.2c2.7,0.2,7.8,0.6,10.5,0.6c3,0,4.5-1,5.5-4.1l0.8-2.5h-1.3c-3,0-5.8-0.5-7.8-7.4l-11.1-35.8
					c-0.1-0.2-0.1-0.3-0.1-0.6c0-0.9,0.6-1.3,1.7-1.3H129c0.9,0,1.3,0.6,1.6,1.5l7.5,29.9c0.3,1,0.6,1.5,1,1.5h0.8l7.8-31.5
					c0.3-0.9,0.8-1.5,1.8-1.5h11.1c0.9,0,1.6,0.6,1.6,1.4C162.2,214.2,162.1,214.2,162.1,214.4z"/>
				<path fill="#171924" d="M201.1,256.6c0,0.9-0.8,1.6-1.7,1.6H190c-0.9,0-1.7-0.7-1.7-1.6v-1.3c-3.3,2.2-6.6,3.6-11.6,3.6
					c-7.3,0-14.3-3.3-14.3-13.7v-0.7c0-9.3,6.2-13.5,20.6-13.5h4.5v-2.9c0-4.5-2.3-5.5-6.3-5.5c-4,0-8.4,0.1-11.4,0.4l-2.5,0.2h-0.4
					c-0.9,0-1.5-0.4-1.5-1.4v-6.5c0-0.9,0.5-1.5,1.6-1.8c3.1-0.7,8.9-1.7,14.5-1.7c12.1,0,19.6,4.6,19.6,16.2V256.6z M187.8,238.7
					H183c-5.8,0-7.4,1.9-7.4,5.8v0.7c0,3.4,1.7,4,5.3,4c2.6,0,4.9-0.8,6.9-1.8V238.7z"/>
				<path fill="#171924" d="M247.5,214.2l-15.6,20.2l15.5,22.1c0.1,0.1,0.2,0.3,0.2,0.6c0,0.7-0.3,1-1.1,1h-12.7
					c-0.9,0-1.4-0.2-2.1-1.1l-12.1-18.7v18.2c0,0.9-0.8,1.7-1.7,1.7h-10.1c-0.9,0-1.8-0.8-1.8-1.7v-57.8c0-0.9,0.8-1.6,1.8-1.6H218
					c0.9,0,1.7,0.7,1.7,1.6V232l12.7-18.2c0.7-1,1.5-1.2,2.2-1.2h12c0.8,0,1.3,0.3,1.3,0.9C247.8,213.7,247.8,214,247.5,214.2z"/>
				<path fill="#171924" d="M291.6,256.6c0,0.9-0.8,1.6-1.7,1.6h-9.4c-0.9,0-1.7-0.7-1.7-1.6v-1.9c-4.6,3.1-8.3,4.1-13.7,4.1
					c-12.1,0-14.8-8.1-14.8-18.1v-26.5c0-0.9,0.8-1.7,1.8-1.7h10.1c0.9,0,1.7,0.8,1.7,1.7v26.5c0,5.6,1.1,7.4,6.2,7.4
					c2.4,0,4.9-1,7.9-2.5v-31.4c0-0.9,0.8-1.7,1.7-1.7h10.1c0.9,0,1.8,0.8,1.8,1.7V256.6z"/>
			</g>
		</g>
		<g>
			<g>
				<path fill="#273958" d="M171.5,270.5c-0.1-1.5-0.2-3.2-0.2-4.5h0c-0.4,1.2-0.8,2.5-1.3,4l-1.8,5.1h-1l-1.7-5
					c-0.5-1.5-0.9-2.8-1.2-4.1h0c0,1.3-0.1,3.1-0.2,4.6l-0.3,4.5h-1.3l0.7-10.4h1.7l1.8,5.1c0.4,1.3,0.8,2.4,1.1,3.5h0
					c0.3-1.1,0.6-2.2,1.1-3.5l1.9-5.1h1.7l0.7,10.4h-1.3L171.5,270.5z"/>
				<path fill="#273958" d="M180.9,275.1l-0.1-0.9h0c-0.4,0.6-1.2,1.1-2.3,1.1c-1.5,0-2.3-1.1-2.3-2.2c0-1.8,1.6-2.8,4.5-2.8v-0.2
					c0-0.6-0.2-1.7-1.7-1.7c-0.7,0-1.4,0.2-2,0.6l-0.3-0.9c0.6-0.4,1.5-0.7,2.5-0.7c2.3,0,2.9,1.6,2.9,3.1v2.8c0,0.7,0,1.3,0.1,1.8
					H180.9z M180.7,271.3c-1.5,0-3.2,0.2-3.2,1.7c0,0.9,0.6,1.3,1.3,1.3c1,0,1.6-0.6,1.8-1.3c0-0.1,0.1-0.3,0.1-0.4V271.3z"/>
				<path fill="#273958" d="M187.1,271L187.1,271c0.2-0.3,0.5-0.6,0.7-0.9l2.2-2.6h1.6l-2.9,3.1l3.3,4.4h-1.7l-2.6-3.6l-0.7,0.8v2.8
					h-1.3v-11h1.3V271z"/>
				<path fill="#273958" d="M195.4,271.6c0,1.8,1.2,2.6,2.6,2.6c1,0,1.6-0.2,2.1-0.4l0.2,1c-0.5,0.2-1.3,0.5-2.5,0.5
					c-2.3,0-3.7-1.5-3.7-3.8c0-2.3,1.3-4,3.5-4c2.4,0,3.1,2.2,3.1,3.5c0,0.3,0,0.5,0,0.6H195.4z M199.4,270.6c0-0.9-0.4-2.2-1.9-2.2
					c-1.4,0-2,1.3-2.1,2.2H199.4z"/>
				<path fill="#273958" d="M209.3,267.6l1.6,4.4c0.2,0.5,0.4,1.1,0.5,1.5h0c0.1-0.4,0.3-1,0.5-1.6l1.5-4.4h1.4l-2,5.3
					c-1,2.6-1.6,3.9-2.6,4.7c-0.7,0.6-1.3,0.8-1.7,0.9l-0.3-1.1c0.3-0.1,0.8-0.3,1.2-0.7c0.4-0.3,0.8-0.8,1.1-1.5
					c0.1-0.1,0.1-0.2,0.1-0.3c0-0.1,0-0.2-0.1-0.4l-2.8-6.9H209.3z"/>
				<path fill="#273958" d="M224.2,271.3c0,2.8-1.9,4-3.7,4c-2,0-3.6-1.5-3.6-3.9c0-2.5,1.6-4,3.7-4
					C222.8,267.4,224.2,269,224.2,271.3z M218.3,271.3c0,1.6,0.9,2.9,2.3,2.9c1.3,0,2.3-1.2,2.3-2.9c0-1.3-0.6-2.9-2.2-2.9
					S218.3,269.9,218.3,271.3z"/>
				<path fill="#273958" d="M233.8,273c0,0.8,0,1.5,0.1,2h-1.2l-0.1-1.2h0c-0.4,0.6-1.1,1.4-2.5,1.4c-1.2,0-2.6-0.7-2.6-3.3v-4.4
					h1.4v4.2c0,1.4,0.4,2.4,1.7,2.4c0.9,0,1.6-0.6,1.8-1.2c0.1-0.2,0.1-0.4,0.1-0.7v-4.6h1.4V273z"/>
				<path fill="#273958" d="M237.6,269.9c0-0.9,0-1.6-0.1-2.3h1.2l0,1.5h0.1c0.3-1,1.2-1.6,2.1-1.6c0.2,0,0.3,0,0.4,0v1.3
					c-0.1,0-0.3,0-0.5,0c-1,0-1.6,0.7-1.8,1.8c0,0.2-0.1,0.4-0.1,0.6v4h-1.3V269.9z"/>
				<path fill="#273958" d="M248.9,273.7c0.4,0.3,1.1,0.5,1.8,0.5c1,0,1.5-0.5,1.5-1.1c0-0.7-0.4-1-1.4-1.4c-1.3-0.5-2-1.2-2-2.1
					c0-1.2,1-2.2,2.6-2.2c0.8,0,1.4,0.2,1.8,0.5l-0.3,1c-0.3-0.2-0.8-0.4-1.5-0.4c-0.8,0-1.3,0.5-1.3,1c0,0.6,0.4,0.9,1.4,1.3
					c1.3,0.5,2,1.1,2,2.3c0,1.3-1,2.2-2.8,2.2c-0.8,0-1.6-0.2-2.1-0.5L248.9,273.7z"/>
				<path fill="#273958" d="M256.8,270c0-1,0-1.7-0.1-2.4h1.2l0.1,1.3h0c0.6-0.9,1.4-1.5,2.7-1.5c1.8,0,3.2,1.5,3.2,3.8
					c0,2.7-1.6,4-3.4,4c-1,0-1.9-0.4-2.3-1.2h0v4.1h-1.3V270z M258.1,272c0,0.2,0,0.4,0.1,0.6c0.2,0.9,1.1,1.6,2,1.6
					c1.4,0,2.3-1.2,2.3-2.9c0-1.5-0.8-2.8-2.2-2.8c-0.9,0-1.8,0.7-2.1,1.7c0,0.2-0.1,0.4-0.1,0.6V272z"/>
				<path fill="#273958" d="M271.3,275.1l-0.1-0.9h0c-0.4,0.6-1.2,1.1-2.3,1.1c-1.5,0-2.3-1.1-2.3-2.2c0-1.8,1.6-2.8,4.5-2.8v-0.2
					c0-0.6-0.2-1.7-1.7-1.7c-0.7,0-1.4,0.2-2,0.6l-0.3-0.9c0.6-0.4,1.5-0.7,2.5-0.7c2.3,0,2.9,1.6,2.9,3.1v2.8c0,0.7,0,1.3,0.1,1.8
					H271.3z M271.1,271.3c-1.5,0-3.2,0.2-3.2,1.7c0,0.9,0.6,1.3,1.3,1.3c1,0,1.6-0.6,1.8-1.3c0-0.1,0.1-0.3,0.1-0.4V271.3z"/>
				<path fill="#273958" d="M281.5,274.8c-0.4,0.2-1.1,0.4-2.2,0.4c-2.3,0-3.7-1.5-3.7-3.8c0-2.3,1.6-4,4-4c0.8,0,1.5,0.2,1.9,0.4
					l-0.3,1.1c-0.3-0.2-0.8-0.4-1.6-0.4c-1.7,0-2.7,1.3-2.7,2.8c0,1.7,1.1,2.8,2.6,2.8c0.8,0,1.3-0.2,1.7-0.4L281.5,274.8z"/>
				<path fill="#273958" d="M285.3,271.6c0,1.8,1.2,2.6,2.6,2.6c1,0,1.6-0.2,2.1-0.4l0.2,1c-0.5,0.2-1.3,0.5-2.5,0.5
					c-2.3,0-3.7-1.5-3.7-3.8c0-2.3,1.3-4,3.5-4c2.4,0,3.1,2.2,3.1,3.5c0,0.3,0,0.5,0,0.6H285.3z M289.3,270.6c0-0.9-0.4-2.2-1.9-2.2
					c-1.4,0-2,1.3-2.1,2.2H289.3z"/>
			</g>
		</g>
	</g>
</g>
<g>
	<g>
		<path fill="#ADADAD" d="M228.9,159.7c0.1,3.2-2.4,5.8-5.6,5.8c-3.2,0.1-5.9-2.4-5.9-5.6c-0.1-3.1,2.4-5.7,5.7-5.8
			C226.2,154.1,228.8,156.6,228.9,159.7z M218.8,159.9c0.1,2.5,2,4.5,4.5,4.4c2.5-0.1,4.2-2.1,4.2-4.6c-0.1-2.5-1.9-4.5-4.4-4.4
			C220.5,155.4,218.7,157.5,218.8,159.9z M222.3,162.8l-1.3,0l-0.1-5.6c0.5-0.1,1.2-0.2,2.2-0.2c1.1,0,1.6,0.1,2,0.4
			c0.3,0.2,0.6,0.7,0.6,1.2c0,0.6-0.5,1.1-1.1,1.3l0,0.1c0.6,0.2,0.9,0.6,1.1,1.4c0.2,0.9,0.3,1.2,0.4,1.4l-1.4,0
			c-0.2-0.2-0.3-0.7-0.5-1.4c-0.1-0.6-0.5-0.9-1.2-0.9l-0.6,0L222.3,162.8z M222.2,159.6l0.6,0c0.7,0,1.3-0.3,1.3-0.9
			c0-0.5-0.4-0.9-1.2-0.8c-0.3,0-0.6,0-0.7,0.1L222.2,159.6z"/>
	</g>
	<g>
		<path fill="#93A7C0" stroke="#171924" stroke-width="5.3795" stroke-miterlimit="10" d="M200.2,119.7h-71.3c-5.5,0-10,4.5-10,10
			v27.9c0,5.5,4.5,10,10,10h71.3c5.5,0,10-4.5,10-10v-27.9C210.2,124.2,205.8,119.7,200.2,119.7z"/>
		<path fill="#4A6E8B" stroke="#171924" stroke-width="5.3795" stroke-miterlimit="10" d="M108.8,78h10.1l2.8-6.2l-2.8-8.9V48.1
			h-10.1V78z"/>
		<path fill="#4A6E8B" stroke="#171924" stroke-width="5.3795" stroke-miterlimit="10" d="M220.4,78h-10.1l-2.8-6.2l2.8-8.9V48.1
			h10.1V78z"/>
		<path fill="#273958" stroke="#171924" stroke-width="5.3795" stroke-miterlimit="10" d="M117.4,71.8c-8.7,0-15.8,7.1-15.8,15.8
			s7.1,15.8,15.8,15.8h4.4V71.8L117.4,71.8z"/>
		<path fill="#273958" stroke="#171924" stroke-width="5.3795" stroke-miterlimit="10" d="M211.8,71.8c8.7,0,15.8,7.1,15.8,15.8
			s-7.1,15.8-15.8,15.8h-4.4V71.8L211.8,71.8z"/>
		<path fill="#93A7C0" stroke="#171924" stroke-width="5.3795" stroke-miterlimit="10" d="M192.8,45.5h-56.5
			c-9.6,0-17.4,7.8-17.4,17.4v40.5c0,9.6,7.8,17.4,17.4,17.4h56.5c9.6,0,17.4-7.8,17.4-17.4V62.9C210.2,53.3,202.4,45.5,192.8,45.5z
			"/>
		<g>
			<path fill="#F1F1F1" stroke="#171924" stroke-width="4.7491" stroke-miterlimit="10" d="M192.5,117.5v32.6c0,4.9-4,8.8-8.8,8.8
				h-39.5c-4.9,0-8.8-4-8.8-8.8v-32.6H192.5z"/>
			<path fill="#FF4B6F" stroke="#171924" stroke-width="4.7491" stroke-miterlimit="10" d="M192.5,114.2v3.3h-57.2v-3.3
				c0-4.9,4-8.8,8.8-8.8h39.5C188.6,105.4,192.5,109.3,192.5,114.2z"/>
			<g>
				<g>
					
						<rect x="145.1" y="126" fill="#F1F1F1" stroke="#171924" stroke-width="3.4199" stroke-linecap="round" stroke-linejoin="round" stroke-miterlimit="10" width="9.1" height="9.1"/>
					
						<rect x="159.7" y="126" fill="#F1F1F1" stroke="#171924" stroke-width="3.4199" stroke-linecap="round" stroke-linejoin="round" stroke-miterlimit="10" width="9.1" height="9.1"/>
					
						<rect x="174.2" y="126" fill="#F1F1F1" stroke="#171924" stroke-width="3.4199" stroke-linecap="round" stroke-linejoin="round" stroke-miterlimit="10" width="9.1" height="9.1"/>
				</g>
				<g>
					
						<rect x="145.1" y="140.6" fill="#F1F1F1" stroke="#171924" stroke-width="3.4199" stroke-linecap="round" stroke-linejoin="round" stroke-miterlimit="10" width="9.1" height="9.1"/>
					
						<rect x="159.7" y="140.6" fill="#F1F1F1" stroke="#171924" stroke-width="3.4199" stroke-linecap="round" stroke-linejoin="round" stroke-miterlimit="10" width="9.1" height="9.1"/>
					
						<rect x="174.2" y="140.6" fill="#F1F1F1" stroke="#171924" stroke-width="3.4199" stroke-linecap="round" stroke-linejoin="round" stroke-miterlimit="10" width="9.1" height="9.1"/>
				</g>
			</g>
			
				<line fill="none" stroke="#171924" stroke-width="3.4199" stroke-linecap="round" stroke-linejoin="round" stroke-miterlimit="10" x1="145.8" y1="102" x2="145.8" y2="108.9"/>
			
				<line fill="none" stroke="#171924" stroke-width="3.4199" stroke-linecap="round" stroke-linejoin="round" stroke-miterlimit="10" x1="180.1" y1="102" x2="180.1" y2="108.9"/>
		</g>
		<circle fill="#93A7C0" stroke="#171924" stroke-width="5.3795" stroke-miterlimit="10" cx="113.8" cy="43" r="7.9"/>
		<circle fill="#93A7C0" stroke="#171924" stroke-width="5.3795" stroke-miterlimit="10" cx="215.3" cy="43" r="7.9"/>
		<g>
			<ellipse fill="#FF99AD" cx="132.9" cy="91.3" rx="5.4" ry="4.3"/>
			<ellipse fill="#FF99AD" cx="196.2" cy="91.3" rx="5.4" ry="4.3"/>
			<circle fill="#171924" cx="142.1" cy="80.6" r="10.7"/>
			<circle fill="#171924" cx="187" cy="80.6" r="10.7"/>
			<g>
				<path fill="#171924" d="M164.6,91.3c-1.8,0-3.6-0.7-5.1-2c-0.6-0.5-0.6-1.4-0.1-2c0.5-0.6,1.4-0.6,2-0.1c1.8,1.7,4.4,1.7,6.3,0
					c0.6-0.5,1.5-0.5,2,0.1c0.5,0.6,0.5,1.5-0.1,2C168.2,90.6,166.4,91.3,164.6,91.3z"/>
			</g>
		</g>
		<g>
			<path fill="#4A6E8B" stroke="#171924" stroke-width="5.3795" stroke-miterlimit="10" d="M216.7,131.2l-12.8,3.3l-0.7,13.2l2.4,2
				c2.3,1.9,5.1,2.6,7.8,2.3c2.7-0.3,5.3-1.6,7.2-3.9c3.7-4.5,3-11.3-1.5-15L216.7,131.2z"/>
			<path fill="#4A6E8B" stroke="#171924" stroke-width="5.3795" stroke-miterlimit="10" d="M187.2,120.8c-3.7,4.5-3,11.3,1.5,15
				l2.4,2l12.8-3.3l0.7-13.2l-2.4-2c-2.3-1.9-5.1-2.6-7.8-2.3C191.6,117.2,189,118.5,187.2,120.8z"/>
			<path fill="#93A7C0" stroke="#171924" stroke-width="5.3795" stroke-miterlimit="10" d="M204.6,121.3l12.1,9.9l-13.5,16.5
				l-12.1-9.9L204.6,121.3z"/>
		</g>
		<g>
			<path fill="#4A6E8B" stroke="#171924" stroke-width="5.3795" stroke-miterlimit="10" d="M111.9,131.2l12.8,3.3l0.7,13.2l-2.4,2
				c-2.3,1.9-5.1,2.6-7.8,2.3c-2.7-0.3-5.3-1.6-7.2-3.9c-3.7-4.5-3-11.3,1.5-15L111.9,131.2z"/>
			<path fill="#4A6E8B" stroke="#171924" stroke-width="5.3795" stroke-miterlimit="10" d="M141.4,120.8c3.7,4.5,3,11.3-1.5,15
				l-2.4,2l-12.8-3.3l-0.7-13.2l2.4-2c2.3-1.9,5.1-2.6,7.8-2.3C137,117.2,139.6,118.5,141.4,120.8z"/>
			<path fill="#93A7C0" stroke="#171924" stroke-width="5.3795" stroke-miterlimit="10" d="M124,121.3l-12.1,9.9l13.5,16.5l12.1-9.9
				L124,121.3z"/>
		</g>
	</g>
</g>
</svg>
